<svg id="Capa_1" data-name="Capa 1" xmlns="http://www.w3.org/2000/svg" xmlns:xlink="http://www.w3.org/1999/xlink" viewBox="0 0 1284.17 749.51"><defs><style>.cls-1{fill:#108add;}.cls-2{fill:#f96a1b;}.cls-3{fill:url(#Degradado_sin_nombre_11);}.cls-4{fill:url(#Degradado_sin_nombre_11-2);}.cls-5{fill:url(#Degradado_sin_nombre_11-3);}.cls-6{fill:url(#Degradado_sin_nombre_11-4);}.cls-7{fill:#0b83b7;}.cls-8{fill:#0d88cc;}.cls-9{fill:#0e92cc;}.cls-10{fill:#ef6018;}</style><linearGradient id="Degradado_sin_nombre_11" x1="666.03" y1="270.81" x2="803.96" y2="270.81" gradientUnits="userSpaceOnUse"><stop offset="0.07" stop-color="#108add" stop-opacity="0"/><stop offset="0.21" stop-color="#108add" stop-opacity="0.14"/><stop offset="0.51" stop-color="#108add" stop-opacity="0.48"/><stop offset="0.93" stop-color="#108add"/></linearGradient><linearGradient id="Degradado_sin_nombre_11-2" x1="614.85" y1="329.24" x2="803.96" y2="329.24" xlink:href="#Degradado_sin_nombre_11"/><linearGradient id="Degradado_sin_nombre_11-3" x1="568.42" y1="389.99" x2="803.96" y2="389.99" xlink:href="#Degradado_sin_nombre_11"/><linearGradient id="Degradado_sin_nombre_11-4" x1="522.8" y1="448.88" x2="803.96" y2="448.88" xlink:href="#Degradado_sin_nombre_11"/></defs><title>Logo</title><g id="_Grupo_" data-name="&lt;Grupo&gt;"><g id="_Grupo_2" data-name="&lt;Grupo&gt;"><g id="_Grupo_3" data-name="&lt;Grupo&gt;"><g id="_Grupo_4" data-name="&lt;Grupo&gt;"><path class="cls-1" d="M209.35,386.46h68.31v79a135.86,135.86,0,0,1-6.49,42.06,98.69,98.69,0,0,1-20.32,35.57q-13.84,15.52-35,24.56t-50.53,9q-30.48,0-51.94-9T78.08,543.41a92.37,92.37,0,0,1-20-35.57,146,146,0,0,1-6.21-42.9V216.52H124.1v75.09H277.66v51.94H124.1v114q0,26.55,9.88,40.94t32.46,14.39q22,0,32.46-14.11t10.45-40.09Z" transform="translate(-51.83 -8)"/></g><g id="_Grupo_5" data-name="&lt;Grupo&gt;"><path class="cls-1" d="M484.86,569.38v-39q-28.25,46.29-86.38,46.29a96.27,96.27,0,0,1-38.11-7.34,84.64,84.64,0,0,1-29.64-20.89,98.59,98.59,0,0,1-19.48-32.18q-7.06-18.63-7.06-41.78V291.61h73.4V463.24q0,51.94,46.86,51.94,28.21,0,42.62-17.78T481.47,452V291.61H554.3V569.38Z" transform="translate(-51.83 -8)"/></g></g><g id="_Grupo_6" data-name="&lt;Grupo&gt;"><g id="_Grupo_7" data-name="&lt;Grupo&gt;"><path class="cls-2" d="M112.28,757.51l-60.45-169h49.8L137,700.16l35.72-111.62h47.05L159,757.51Z" transform="translate(-51.83 -8)"/></g><g id="_Grupo_8" data-name="&lt;Grupo&gt;"><path class="cls-2" d="M340,753.05v-23.7q-17.18,28.17-52.54,28.16a58.68,58.68,0,0,1-23.19-4.46,51.64,51.64,0,0,1-18-12.71,60,60,0,0,1-11.85-19.57,71.38,71.38,0,0,1-4.29-25.42V584.07h44.65V688.48q0,31.6,28.51,31.6,17.16,0,25.93-10.82t8.75-27.65V584.07h44.31v169Z" transform="translate(-51.83 -8)"/></g><g id="_Grupo_9" data-name="&lt;Grupo&gt;"><path class="cls-2" d="M441,680.24q1,19.23,11.16,30.56t26.62,11.34a37.38,37.38,0,0,0,19.4-5A22.55,22.55,0,0,0,509,703.25h46q-7.89,26.1-27.47,40.18T480.8,757.51q-84.49,0-84.49-92a107.36,107.36,0,0,1,5.49-35.38,76.57,76.57,0,0,1,16-27.13,68.92,68.92,0,0,1,25.59-17.34q15.12-6,34.69-6,39.17,0,59.25,25.08t20.09,75.56Zm70.41-28.17a46.85,46.85,0,0,0-3.27-16.31,34.12,34.12,0,0,0-7.72-11.68,30.79,30.79,0,0,0-11-6.87A37.43,37.43,0,0,0,476.68,615a31.65,31.65,0,0,0-23.18,9.79q-9.79,9.79-11.17,27.3Z" transform="translate(-51.83 -8)"/></g><g id="_Grupo_10" data-name="&lt;Grupo&gt;"><path class="cls-2" d="M571.12,757.51V526.71h44.65v230.8Z" transform="translate(-51.83 -8)"/></g><g id="_Grupo_11" data-name="&lt;Grupo&gt;"><path class="cls-2" d="M729.11,641.77h41.56v48.08a82.62,82.62,0,0,1-3.95,25.59,60.18,60.18,0,0,1-12.36,21.64A59,59,0,0,1,733.06,752q-12.88,5.49-30.74,5.49-18.54,0-31.6-5.49a59.76,59.76,0,0,1-21.46-14.77,56,56,0,0,1-12.19-21.64,88.43,88.43,0,0,1-3.78-26.1V538.39h44v45.68h93.42v31.6H677.25V685q0,16.15,6,24.91T703,718.7q13.4,0,19.75-8.58t6.35-24.39Z" transform="translate(-51.83 -8)"/></g><g id="_Grupo_12" data-name="&lt;Grupo&gt;"><path class="cls-2" d="M892.59,753.05a68.92,68.92,0,0,1-2.75-15.11q-7.9,8.92-21,14.25t-30.22,5.32q-29.2,0-42.76-12.88t-13.57-33.48q0-18.21,5.84-29a43.58,43.58,0,0,1,16.14-17,77.92,77.92,0,0,1,24.56-9.1q14.25-2.91,31.08-5.32t22.67-6.35q5.83-3.95,5.84-12.88,0-8.25-7.73-12.88T860,614q-15.45,0-22.15,6.87T829.4,639H787.84a76.21,76.21,0,0,1,4.29-24,46.09,46.09,0,0,1,12.71-18.89q8.74-7.89,22.84-12.19T862,579.6q19.92,0,33.83,4.47T918.18,597a49.14,49.14,0,0,1,12.19,20.95,98.13,98.13,0,0,1,3.78,28.33V753.05Zm-3.09-82.77a24.1,24.1,0,0,1-10,5.49,183,183,0,0,1-18.89,4.47q-19.24,3.78-26.45,9.61T827,706.68q0,18.9,21.64,18.89a43,43,0,0,0,16-2.92,38.91,38.91,0,0,0,21.29-19.57,32.1,32.1,0,0,0,3.27-14.26Z" transform="translate(-51.83 -8)"/></g><g id="_Grupo_13" data-name="&lt;Grupo&gt;"><g id="_Grupo_14" data-name="&lt;Grupo&gt;"><path class="cls-2" d="M947.9,753.05V706.68h47.74v46.37Z" transform="translate(-51.83 -8)"/></g><g id="_Grupo_15" data-name="&lt;Grupo&gt;"><path class="cls-2" d="M1155.69,691.91a71.52,71.52,0,0,1-8.41,26.79,72.39,72.39,0,0,1-17,20.61,78.15,78.15,0,0,1-23.53,13.39,83.2,83.2,0,0,1-28.68,4.81,84.51,84.51,0,0,1-31.43-5.66,64.52,64.52,0,0,1-24.55-17.18q-10.3-11.49-16-28.5t-5.67-39.67q0-22.66,5.67-39.16t16-27a64.38,64.38,0,0,1,24.9-15.62,104.19,104.19,0,0,1,62.51-.69,70.2,70.2,0,0,1,23.69,13,62.67,62.67,0,0,1,16,20.61,72.15,72.15,0,0,1,6.86,26.79h-45q-1.72-13-10.47-20.44t-21.47-7.38a36.66,36.66,0,0,0-13.39,2.4,26.3,26.3,0,0,0-10.82,8.07q-4.64,5.67-7.39,15.11t-2.74,23.19q0,27.82,10,41.21t23,13.4q13.05,0,22.32-7.22t10.65-21Z" transform="translate(-51.83 -8)"/></g><g id="_Grupo_16" data-name="&lt;Grupo&gt;"><path class="cls-2" d="M1250.14,757.51q-20.61,0-36.75-6.52a75.31,75.31,0,0,1-44.3-46.37,107.13,107.13,0,0,1-5.84-36.06,105.55,105.55,0,0,1,6-36.41A78.4,78.4,0,0,1,1186.6,604a77.56,77.56,0,0,1,27.3-18q16-6.35,36.24-6.35,19.9,0,35.72,6.35A75.43,75.43,0,0,1,1330,631.81a106.83,106.83,0,0,1,6,36.75q0,20.27-6,36.58a80,80,0,0,1-17.17,28,75.77,75.77,0,0,1-27.13,18A95.54,95.54,0,0,1,1250.14,757.51Zm0-37.43q40.86,0,40.87-51.52,0-51.16-40.87-51.18t-40.87,51.18Q1209.27,720.07,1250.14,720.08Z" transform="translate(-51.83 -8)"/></g></g></g></g><g id="_Grupo_17" data-name="&lt;Grupo&gt;"><g id="_Grupo_18" data-name="&lt;Grupo&gt;"><rect id="_Rectángulo_" data-name="&lt;Rectángulo&gt;" class="cls-3" x="666.03" y="257.32" width="137.93" height="26.97"/><rect id="_Rectángulo_2" data-name="&lt;Rectángulo&gt;" class="cls-4" x="614.85" y="315.75" width="189.11" height="26.97"/><rect id="_Rectángulo_3" data-name="&lt;Rectángulo&gt;" class="cls-5" x="568.42" y="376.5" width="235.54" height="26.97"/><rect id="_Rectángulo_4" data-name="&lt;Rectángulo&gt;" class="cls-6" x="522.8" y="435.4" width="281.16" height="26.97"/></g><path id="_Trazado_compuesto_" data-name="&lt;Trazado compuesto&gt;" class="cls-2" d="M1067.08,237.56,1055,246.19s-3-37.5-28.13-51.57c0,0-15-9.13-24.92-7.65,0,0,2.46-10.86,2.46-27.64,0,0,3.71.25,3-11.35s3.2-27.88-1-28.13l-.25-6.91s2.72-2,2.47-4.19c0,0,24.9-30.85-8.65-39.24,0,0-1.47-66.62-71.8-61.2,0,0-.41.07-1.17.24-7.85,1.76-51.93,14.21-46.08,71.57L885.53,128s-6.45-6.16-9.41-1.23-1,52.81,21,43.68c0,0,2.46,20.23,8.38,25.41,0,0-13.08,2.72-17,36.28,0,0-83.16,76.25-78,88.34s-3.45,15.79-2.22,26.15,3.45,4.2,2.47,16.29-2.72,13.85.24,20.26-8.88,19.33-4.44,55.56h2s-1.24,22.91,9.13,29.82,35.78,17.39,90.31,16.4l7.4,20.29s3.71,15.32,3,27.17a93.26,93.26,0,0,0,7.65,41.35l4.2,6.59s4.93,13.55,9.13,15.53,5.18,16.27,11.1,24.66,20,25.91,33.56,17.52-.74-28.88-7.15-36.53-9.38-11.84-6.42-18.51,3-11.59,1-16.28,4.19-5.93,4.93-23.2l2.22-4.19s24.68,12.83,37.27,3.7,11.35-21-24.19-25.42l4.2-7.16s7.89-2.46,19,4.45,20.23,10.85,27.14,3.94l32.57,20,98.22-121.4,21.71-142.14ZM864.49,435.21a56.59,56.59,0,0,0,4-9.62,11.64,11.64,0,0,1,4.19-6.17s7.9,21.47,14.81,24.18Z" transform="translate(-51.83 -8)"/><path id="_Trazado_" data-name="&lt;Trazado&gt;" class="cls-1" d="M1002.23,35.57" transform="translate(-51.83 -8)"/><path id="_Trazado_2" data-name="&lt;Trazado&gt;" class="cls-1" d="M992.8,79.14l.55.49c-.15-.12-.28-.27-.43-.4Z" transform="translate(-51.83 -8)"/><g id="_Grupo_19" data-name="&lt;Grupo&gt;"><polygon id="_Trazado_3" data-name="&lt;Trazado&gt;" class="cls-1" points="1022.41 391.31 1022.65 530.85 1120.87 409.44 1142.58 267.31 1022.41 391.31"/><path id="_Trazado_4" data-name="&lt;Trazado&gt;" class="cls-7" d="M967.27,463.34c2.59-1.48,10.55-8.33,23.13-1.29s12,8,16.66,7.77,17.21,2.41,17.21,8.33-10.55,6.29-14.62,4.81-8.89-2-8.33.73,14.07,15.19,17.64,21.85l55.52,33.31-.24-139.54L936.92,326.76l26.54,137A9,9,0,0,0,967.27,463.34Z" transform="translate(-51.83 -8)"/><g id="_Grupo_20" data-name="&lt;Grupo&gt;"><path id="_Trazado_5" data-name="&lt;Trazado&gt;" class="cls-1" d="M952.52,65.32c.32,0,.5-.06.5-.06a148.45,148.45,0,0,1,46.92,3.92c-.21-4.83-4.22-66.08-71.78-60.87,0,0-.42.07-1.18.24-7.84,1.76-51.93,14.21-46.08,71.57l3.59,37.19h0c6.45-16.77,28.15-34.39,48.42-42.86a1.84,1.84,0,0,1-.25.09C942.54,67.24,950.49,65.63,952.52,65.32Z" transform="translate(-51.83 -8)"/><path id="_Trazado_6" data-name="&lt;Trazado&gt;" class="cls-7" d="M1011.47,73.29a59.16,59.16,0,0,0-11.53-4.11A148.45,148.45,0,0,0,953,65.26s-.18,0-.5.06c-2,.31-10,1.92-19.86,9.22a1.84,1.84,0,0,0,.25-.09,96.7,96.7,0,0,1,15.36-4.55,66,66,0,0,1,16.52-1.35,46.67,46.67,0,0,1,28,10.59l.12.09c.15.13.28.28.43.4l.08.08A28.48,28.48,0,0,1,997,83.55c7.53,9.74,11.63,25.2,11.63,25.2,8.76,1.11,18.35-4.9,18.35-4.9C1039.25,89.89,1023.34,79.32,1011.47,73.29Z" transform="translate(-51.83 -8)"/></g><path id="_Trazado_7" data-name="&lt;Trazado&gt;" class="cls-1" d="M845.86,422.26a173.9,173.9,0,0,1-18.35.63l-.11.21C815.85,423,805.49,422,805.49,422l.08,3.74s0,2.82.07,5a68.09,68.09,0,0,0,.86,8h2a119,119,0,0,1,12.27-2.06c.08-.14.15-.6.23-.74a174.6,174.6,0,0,0,17.6-3.16c15.67-3.58,25.91,2.52,25.91,2.52a24.08,24.08,0,0,0,3.66-8.64S861.53,420.65,845.86,422.26Z" transform="translate(-51.83 -8)"/><path id="_Trazado_8" data-name="&lt;Trazado&gt;" class="cls-8" d="M932,268.51c-38.12-33.68-34.3-66.13-34.3-66.13-13.58,15.31-9.1,50.35-9.1,50.35.42,28.25,7.26,62,7.26,62l36.69-24.61v18.69l31.05,2,13.21,9.07,7.44-8.14c-1.26-2.6-2.23-5.29-3.46-7.7C963.91,300.53,932,268.51,932,268.51Z" transform="translate(-51.83 -8)"/><path id="_Trazado_9" data-name="&lt;Trazado&gt;" class="cls-1" d="M1018.9,219.79l-25.73-17.41s-3,6.29-5.56,9.25-7.78,13.12-7.78,13.12c6.66,35.91,1.27,79.36,1.27,79.36l-.19,0c1.23,2.41,2.31,5.1,3.57,7.7l15.91-17.95,11.48-38.13-18.69-10.18Z" transform="translate(-51.83 -8)"/><polygon id="_Trazado_10" data-name="&lt;Trazado&gt;" class="cls-9" points="1015.25 229.56 885.09 318.76 1022.41 391.31 1142.58 267.31 1015.25 229.56"/></g><g id="_Grupo_21" data-name="&lt;Grupo&gt;"><polygon id="_Trazado_11" data-name="&lt;Trazado&gt;" class="cls-2" points="1054.22 241.11 931.72 344.67 962.07 359.85 1086.41 250.65 1054.22 241.11"/><polygon id="_Trazado_12" data-name="&lt;Trazado&gt;" class="cls-10" points="931.72 344.67 962.07 359.85 960.59 387.98 935.05 372.43 931.72 344.67"/></g></g></g></svg>